<svg xmlns="http://www.w3.org/2000/svg" viewBox="0 0 32 32" role="img" aria-label="EverGreen Cold Storage">
  <defs>
    <linearGradient id="eg-fav" x1="0%" y1="0%" x2="100%" y2="100%">
      <stop offset="0%" stop-color="#10b981"/>
      <stop offset="100%" stop-color="#0f766e"/>
    </linearGradient>
  </defs>
  <rect width="32" height="32" rx="9" fill="url(#eg-fav)"/>
  <g fill="none" stroke="#ffffff" stroke-width="1.7" stroke-linecap="round">
    <path d="M16 7.5v17"/>
    <path d="M8.5 16h15"/>
    <path d="M10.4 10.4l11.2 11.2"/>
    <path d="M21.6 10.4L10.4 21.6"/>
    <path d="M16 10.2l-2.2-2.2M16 10.2l2.2-2.2"/>
    <path d="M16 21.8l-2.2 2.2M16 21.8l2.2 2.2"/>
    <path d="M10.2 16l-2.2-2.2M10.2 16l-2.2 2.2"/>
    <path d="M21.8 16l2.2-2.2M21.8 16l2.2 2.2"/>
  </g>
  <path d="M22.5 21.8c1.8-2.4 1.2-5.2-.2-5.8-1.6.8-2.6 3.2-1.2 5.4.4.6 1 .8 1.4.4z" fill="#d1fae5" opacity="0.95"/>
</svg>
